<svg xmlns="http://www.w3.org/2000/svg" width="275.453" height="60.453" viewBox="0 0 275.453 60.453">
  <g id="Group_47" data-name="Group 47" transform="translate(-159 -149)">
    <g id="Group_41" data-name="Group 41" transform="translate(-0.227)">
      <path id="Path_2" data-name="Path 2" d="M4.709,3.972S7,1.279,11.952,1.823c3.681.4,6.147,1.474,7.342,4.979s3.288,9.579,3.494,11.848c.358,3.938,2.148,9.129,3.4,9.487,0,0,1.55-10.247-2.685-15.752a11.139,11.139,0,0,1-2.326-9.4A2.162,2.162,0,0,1,22.56,1.423,28.316,28.316,0,0,1,28.965.02a5.226,5.226,0,0,1,5.73,5.1,46.28,46.28,0,0,1-1.379,10.943,14.38,14.38,0,0,1-1.247,3.368c-.918,1.775-2.288,4.994-1.673,7.453,0,0,4.654-5.191,4.923-11.546,0,0-.716-13.246,6-13.783s17.184,1.79,14.5,5.728-9.666,6.273-10.114,6.9-5.728,2.771-7.339,6.888a16.246,16.246,0,0,1-4.654,6.444s2.148-.089,6.265-5.37S53.04,13.369,53.04,13.369s5.728-1.693,6.444.809-.269,4.74,0,5.9.895,5.1-5.281,4.565a26.2,26.2,0,0,0-13.962,2.6c-2.417,1.343-5.639,3.043-5.639,3.043a75.32,75.32,0,0,0,9.04-2.238C46.864,26.884,56.53,27.6,56.53,27.6s3.759,1.074,2.775,5.639a52.441,52.441,0,0,1-2.775,8.682s-1.432,3.4-4.386.806-8.771-12.351-18.617-8.95c0,0,7.071.806,10.293,3.759s10.472,8.145,11.1,11.1c.806,3.8,1.435,9.853-3.757,9.853-5.575,0-8.513,1.908-10.832-.008-1.442-1.191-.9-8.357-1.364-10.914-.325-1.807-.354-3.653-1.461-5.118a52.975,52.975,0,0,0-4.067-4.822s5.281,9.756,4.028,14.231-1.522,8.682-9.577,8.592-11.9-2.238-5.907-6.623,9.4-11.546,7.608-17.005A22.7,22.7,0,0,1,13.1,56.072c-.346.1-.688.212-1.024.342-1.972.764-10.187,3.4-9.872-5.9a54.551,54.551,0,0,0-.009-6.623c-.26-1.79,1.172-5.281,6.364-4.117,7.007,1.571,11.635.537,13.783-3.222,0,0-16.379,5.907-20.944-3.222,0,0-2.506-9.487-.806-18.706s7.25,3.58,7.25,3.58,7.071,9.317,15.752,12.132c0,0-8.145-7.21-11.1-10.342S3.545,5.851,4.709,3.972" transform="translate(159.227 149.004)" fill="#bd85eb"/>
      <path id="Path_3" data-name="Path 3" d="M410.01,494.561a7.323,7.323,0,0,1,3.169-4.067c1.921-1.2,4.755-2.719,5.046-1.422.643,2.869.074,2.029-1.716,4.267s-.324,3.786-4.652,3.972c-2.164.093-2.276-1.317-1.847-2.75" transform="translate(-226.451 -311.742)" fill="#d7c0ea"/>
      <rect id="Rectangle_17" data-name="Rectangle 17" width="59.751" height="60.453" transform="translate(159.227 149)" fill="none"/>
    </g>
    <g id="Group_38" data-name="Group 38" transform="translate(2.071)">
      <path id="Path_2-2" data-name="Path 2" d="M4.709,3.972S7,1.279,11.952,1.823c3.681.4,6.147,1.474,7.342,4.979s3.288,9.579,3.494,11.848c.358,3.938,2.148,9.129,3.4,9.487,0,0,1.55-10.247-2.685-15.752a11.139,11.139,0,0,1-2.326-9.4A2.162,2.162,0,0,1,22.56,1.423,28.316,28.316,0,0,1,28.965.02a5.226,5.226,0,0,1,5.73,5.1,46.28,46.28,0,0,1-1.379,10.943,14.38,14.38,0,0,1-1.247,3.368c-.918,1.775-2.288,4.994-1.673,7.453,0,0,4.654-5.191,4.923-11.546,0,0-.716-13.246,6-13.783s17.184,1.79,14.5,5.728-9.666,6.273-10.114,6.9-5.728,2.771-7.339,6.888a16.246,16.246,0,0,1-4.654,6.444s2.148-.089,6.265-5.37S53.04,13.369,53.04,13.369s5.728-1.693,6.444.809-.269,4.74,0,5.9.895,5.1-5.281,4.565a26.2,26.2,0,0,0-13.962,2.6c-2.417,1.343-5.639,3.043-5.639,3.043a75.32,75.32,0,0,0,9.04-2.238C46.864,26.884,56.53,27.6,56.53,27.6s3.759,1.074,2.775,5.639a52.441,52.441,0,0,1-2.775,8.682s-1.432,3.4-4.386.806-8.771-12.351-18.617-8.95c0,0,7.071.806,10.293,3.759s10.472,8.145,11.1,11.1c.806,3.8,1.435,9.853-3.757,9.853-5.575,0-8.513,1.908-10.832-.008-1.442-1.191-.9-8.357-1.364-10.914-.325-1.807-.354-3.653-1.461-5.118a52.975,52.975,0,0,0-4.067-4.822s5.281,9.756,4.028,14.231-1.522,8.682-9.577,8.592-11.9-2.238-5.907-6.623,9.4-11.546,7.608-17.005A22.7,22.7,0,0,1,13.1,56.072c-.346.1-.688.212-1.024.342-1.972.764-10.187,3.4-9.872-5.9a54.551,54.551,0,0,0-.009-6.623c-.26-1.79,1.172-5.281,6.364-4.117,7.007,1.571,11.635.537,13.783-3.222,0,0-16.379,5.907-20.944-3.222,0,0-2.506-9.487-.806-18.706s7.25,3.58,7.25,3.58,7.071,9.317,15.752,12.132c0,0-8.145-7.21-11.1-10.342S3.545,5.851,4.709,3.972" transform="translate(360.378 149.352) rotate(90)" fill="#9bd1b2"/>
      <path id="Path_3-2" data-name="Path 3" d="M410.01,494.561a7.323,7.323,0,0,1,3.169-4.067c1.921-1.2,4.755-2.719,5.046-1.422.643,2.869.074,2.029-1.716,4.267s-.324,3.786-4.652,3.972c-2.164.093-2.276-1.317-1.847-2.75" transform="translate(821.124 -236.326) rotate(90)" fill="#bd85eb"/>
      <rect id="Rectangle_17-2" data-name="Rectangle 17" width="59.751" height="60.453" transform="translate(360.382 149.351) rotate(90)" fill="none"/>
    </g>
    <g id="Group_39" data-name="Group 39" transform="translate(0.368)">
      <path id="Path_2-3" data-name="Path 2" d="M4.709,3.972S7,1.279,11.952,1.823c3.681.4,6.147,1.474,7.342,4.979s3.288,9.579,3.494,11.848c.358,3.938,2.148,9.129,3.4,9.487,0,0,1.55-10.247-2.685-15.752a11.139,11.139,0,0,1-2.326-9.4A2.162,2.162,0,0,1,22.56,1.423,28.316,28.316,0,0,1,28.965.02a5.226,5.226,0,0,1,5.73,5.1,46.28,46.28,0,0,1-1.379,10.943,14.38,14.38,0,0,1-1.247,3.368c-.918,1.775-2.288,4.994-1.673,7.453,0,0,4.654-5.191,4.923-11.546,0,0-.716-13.246,6-13.783s17.184,1.79,14.5,5.728-9.666,6.273-10.114,6.9-5.728,2.771-7.339,6.888a16.246,16.246,0,0,1-4.654,6.444s2.148-.089,6.265-5.37S53.04,13.369,53.04,13.369s5.728-1.693,6.444.809-.269,4.74,0,5.9.895,5.1-5.281,4.565a26.2,26.2,0,0,0-13.962,2.6c-2.417,1.343-5.639,3.043-5.639,3.043a75.32,75.32,0,0,0,9.04-2.238C46.864,26.884,56.53,27.6,56.53,27.6s3.759,1.074,2.775,5.639a52.441,52.441,0,0,1-2.775,8.682s-1.432,3.4-4.386.806-8.771-12.351-18.617-8.95c0,0,7.071.806,10.293,3.759s10.472,8.145,11.1,11.1c.806,3.8,1.435,9.853-3.757,9.853-5.575,0-8.513,1.908-10.832-.008-1.442-1.191-.9-8.357-1.364-10.914-.325-1.807-.354-3.653-1.461-5.118a52.975,52.975,0,0,0-4.067-4.822s5.281,9.756,4.028,14.231-1.522,8.682-9.577,8.592-11.9-2.238-5.907-6.623,9.4-11.546,7.608-17.005A22.7,22.7,0,0,1,13.1,56.072c-.346.1-.688.212-1.024.342-1.972.764-10.187,3.4-9.872-5.9a54.551,54.551,0,0,0-.009-6.623c-.26-1.79,1.172-5.281,6.364-4.117,7.007,1.571,11.635.537,13.783-3.222,0,0-16.379,5.907-20.944-3.222,0,0-2.506-9.487-.806-18.706s7.25,3.58,7.25,3.58,7.071,9.317,15.752,12.132c0,0-8.145-7.21-11.1-10.342S3.545,5.851,4.709,3.972" transform="translate(434.081 149.352) rotate(90)" fill="#9480b5"/>
      <path id="Path_3-3" data-name="Path 3" d="M410.01,494.561a7.323,7.323,0,0,1,3.169-4.067c1.921-1.2,4.755-2.719,5.046-1.422.643,2.869.074,2.029-1.716,4.267s-.324,3.786-4.652,3.972c-2.164.093-2.276-1.317-1.847-2.75" transform="translate(894.827 -236.326) rotate(90)" fill="#9bd1b2"/>
      <rect id="Rectangle_17-3" data-name="Rectangle 17" width="59.751" height="60.453" transform="translate(434.085 149.351) rotate(90)" fill="none"/>
    </g>
    <g id="Group_40" data-name="Group 40" transform="translate(0.773)">
      <path id="Path_2-4" data-name="Path 2" d="M4.709,3.972S7,1.279,11.952,1.823c3.681.4,6.147,1.474,7.342,4.979s3.288,9.579,3.494,11.848c.358,3.938,2.148,9.129,3.4,9.487,0,0,1.55-10.247-2.685-15.752a11.139,11.139,0,0,1-2.326-9.4A2.162,2.162,0,0,1,22.56,1.423,28.316,28.316,0,0,1,28.965.02a5.226,5.226,0,0,1,5.73,5.1,46.28,46.28,0,0,1-1.379,10.943,14.38,14.38,0,0,1-1.247,3.368c-.918,1.775-2.288,4.994-1.673,7.453,0,0,4.654-5.191,4.923-11.546,0,0-.716-13.246,6-13.783s17.184,1.79,14.5,5.728-9.666,6.273-10.114,6.9-5.728,2.771-7.339,6.888a16.246,16.246,0,0,1-4.654,6.444s2.148-.089,6.265-5.37S53.04,13.369,53.04,13.369s5.728-1.693,6.444.809-.269,4.74,0,5.9.895,5.1-5.281,4.565a26.2,26.2,0,0,0-13.962,2.6c-2.417,1.343-5.639,3.043-5.639,3.043a75.32,75.32,0,0,0,9.04-2.238C46.864,26.884,56.53,27.6,56.53,27.6s3.759,1.074,2.775,5.639a52.441,52.441,0,0,1-2.775,8.682s-1.432,3.4-4.386.806-8.771-12.351-18.617-8.95c0,0,7.071.806,10.293,3.759s10.472,8.145,11.1,11.1c.806,3.8,1.435,9.853-3.757,9.853-5.575,0-8.513,1.908-10.832-.008-1.442-1.191-.9-8.357-1.364-10.914-.325-1.807-.354-3.653-1.461-5.118a52.975,52.975,0,0,0-4.067-4.822s5.281,9.756,4.028,14.231-1.522,8.682-9.577,8.592-11.9-2.238-5.907-6.623,9.4-11.546,7.608-17.005A22.7,22.7,0,0,1,13.1,56.072c-.346.1-.688.212-1.024.342-1.972.764-10.187,3.4-9.872-5.9a54.551,54.551,0,0,0-.009-6.623c-.26-1.79,1.172-5.281,6.364-4.117,7.007,1.571,11.635.537,13.783-3.222,0,0-16.379,5.907-20.944-3.222,0,0-2.506-9.487-.806-18.706s7.25,3.58,7.25,3.58,7.071,9.317,15.752,12.132c0,0-8.145-7.21-11.1-10.342S3.545,5.851,4.709,3.972" transform="translate(229.23 209.102) rotate(-90)" fill="#d7c0ea"/>
      <path id="Path_3-4" data-name="Path 3" d="M410.01,494.561a7.323,7.323,0,0,1,3.169-4.067c1.921-1.2,4.755-2.719,5.046-1.422.643,2.869.074,2.029-1.716,4.267s-.324,3.786-4.652,3.972c-2.164.093-2.276-1.317-1.847-2.75" transform="translate(-231.515 594.779) rotate(-90)" fill="#5a3a61"/>
      <rect id="Rectangle_17-4" data-name="Rectangle 17" width="59.751" height="60.453" transform="translate(229.227 209.102) rotate(-90)" fill="none"/>
    </g>
  </g>
</svg>
