<svg xmlns="http://www.w3.org/2000/svg" width="30.216" height="30.215" viewBox="0 0 30.216 30.215">
  <path id="Icon_awesome-linkedin-in" data-name="Icon awesome-linkedin-in" d="M6.763,30.216H.5V10.043H6.763ZM3.628,7.291A3.645,3.645,0,1,1,7.256,3.629,3.659,3.659,0,0,1,3.628,7.291ZM30.209,30.216H23.958V20.4c0-2.34-.047-5.342-3.257-5.342-3.257,0-3.756,2.543-3.756,5.173v9.989H10.687V10.043H16.7v2.752h.088A6.582,6.582,0,0,1,22.71,9.537c6.34,0,7.505,4.175,7.505,9.6V30.216Z" transform="translate(0 -0.001)" fill="#bd85eb"/>
</svg>
