<svg xmlns="http://www.w3.org/2000/svg" width="30.215" height="30.215" viewBox="0 0 30.215 30.215">
  <path id="Icon_awesome-codepen" data-name="Icon awesome-codepen" d="M29.642,9.425,15.833.219a1.312,1.312,0,0,0-1.45,0L.573,9.425A1.32,1.32,0,0,0,0,10.5V19.71a1.32,1.32,0,0,0,.573,1.079L14.383,30a1.312,1.312,0,0,0,1.45,0l13.809-9.207a1.32,1.32,0,0,0,.573-1.079V10.5a1.32,1.32,0,0,0-.573-1.079Zm-13.236-5.7L26.573,10.5l-4.536,3.035-5.632-3.76Zm-2.6,0V9.779l-5.632,3.76L3.642,10.5ZM2.6,12.932l3.254,2.175L2.6,17.282ZM13.809,26.488,3.642,19.71l4.536-3.035,5.632,3.76Zm1.3-8.313-4.586-3.069,4.586-3.069,4.586,3.069Zm1.3,8.313V20.435l5.632-3.76,4.536,3.035Zm11.213-9.206-3.254-2.175,3.254-2.175Z" transform="translate(0 0)" fill="#bd85eb"/>
</svg>
