<svg xmlns="http://www.w3.org/2000/svg" width="30.989" height="30.215" viewBox="0 0 30.989 30.215">
  <path id="Icon_awesome-github" data-name="Icon awesome-github" d="M10.365,24.892c0,.125-.144.225-.325.225-.206.019-.35-.081-.35-.225,0-.125.144-.225.325-.225C10.2,24.648,10.365,24.748,10.365,24.892ZM8.422,24.61c-.044.125.081.269.269.306a.293.293,0,0,0,.387-.125c.037-.125-.081-.269-.269-.325A.321.321,0,0,0,8.422,24.61Zm2.762-.106c-.181.044-.306.162-.287.306.019.125.181.206.369.162s.306-.162.287-.287S11.365,24.486,11.184,24.5ZM15.295.563A14.982,14.982,0,0,0,0,15.807,15.664,15.664,0,0,0,10.59,30.752c.8.144,1.081-.35,1.081-.756,0-.387-.019-2.524-.019-3.836,0,0-4.373.937-5.292-1.862,0,0-.712-1.818-1.737-2.287,0,0-1.431-.981.1-.962a3.3,3.3,0,0,1,2.412,1.612,3.3,3.3,0,0,0,4.555,1.306,3.473,3.473,0,0,1,1-2.106c-3.493-.387-7.016-.893-7.016-6.9a4.735,4.735,0,0,1,1.474-3.68A5.9,5.9,0,0,1,7.31,7.035c1.306-.406,4.311,1.687,4.311,1.687a14.76,14.76,0,0,1,7.847,0s3.005-2.1,4.311-1.687a5.9,5.9,0,0,1,.162,4.242,4.857,4.857,0,0,1,1.612,3.68c0,6.029-3.68,6.51-7.173,6.9a3.7,3.7,0,0,1,1.062,2.9c0,2.106-.019,4.711-.019,5.223,0,.406.287.9,1.081.756A15.52,15.52,0,0,0,30.989,15.807C30.989,7.141,23.96.563,15.295.563ZM6.073,22.111c-.081.062-.062.206.044.325.1.1.244.144.325.062.081-.062.062-.206-.044-.325C6.3,22.074,6.154,22.03,6.073,22.111ZM5.4,21.605c-.044.081.019.181.144.244a.186.186,0,0,0,.269-.044c.044-.081-.019-.181-.144-.244C5.542,21.524,5.442,21.543,5.4,21.605ZM7.422,23.83c-.1.081-.062.269.081.387.144.144.325.162.406.062.081-.081.044-.269-.081-.387C7.691,23.748,7.5,23.73,7.422,23.83Zm-.712-.918c-.1.062-.1.225,0,.369s.269.206.35.144a.285.285,0,0,0,0-.387C6.973,22.892,6.81,22.83,6.71,22.911Z" transform="translate(0 -0.563)" fill="#bd85eb"/>
</svg>
